<?xml version="1.0" encoding="UTF-8"?>
<svg xmlns="http://www.w3.org/2000/svg" xmlns:xlink="http://www.w3.org/1999/xlink" width="145.919998pt" height="145.919998pt" viewBox="0 0 145.919998 145.919998" version="1.1">
<defs>
<clipPath id="clip1">
  <path d="M 0 0 L 145.921875 0 L 145.921875 145.28125 L 0 145.28125 Z M 0 0 "/>
</clipPath>
</defs>
<g id="surface1">
<path style=" stroke:none;fill-rule:nonzero;fill:rgb(100%,100%,100%);fill-opacity:1;" d="M 144.921875 73 C 144.921875 74.175781 144.890625 75.351563 144.835938 76.527344 C 144.777344 77.703125 144.691406 78.878906 144.574219 80.050781 C 144.460938 81.222656 144.316406 82.390625 144.144531 83.554688 C 143.96875 84.71875 143.769531 85.875 143.539063 87.03125 C 143.308594 88.183594 143.050781 89.332031 142.765625 90.476563 C 142.480469 91.617188 142.164063 92.75 141.824219 93.878906 C 141.484375 95.003906 141.113281 96.121094 140.71875 97.230469 C 140.320313 98.335938 139.898438 99.4375 139.445313 100.523438 C 138.996094 101.609375 138.519531 102.6875 138.015625 103.75 C 137.511719 104.8125 136.984375 105.867188 136.429688 106.902344 C 135.875 107.941406 135.292969 108.964844 134.6875 109.976563 C 134.082031 110.984375 133.453125 111.980469 132.800781 112.957031 C 132.144531 113.9375 131.46875 114.898438 130.769531 115.84375 C 130.066406 116.789063 129.34375 117.714844 128.597656 118.625 C 127.847656 119.535156 127.082031 120.425781 126.289063 121.300781 C 125.5 122.171875 124.6875 123.023438 123.855469 123.855469 C 123.023438 124.6875 122.171875 125.5 121.300781 126.289063 C 120.425781 127.082031 119.535156 127.847656 118.625 128.597656 C 117.714844 129.34375 116.789063 130.066406 115.84375 130.769531 C 114.898438 131.46875 113.9375 132.144531 112.957031 132.800781 C 111.980469 133.453125 110.984375 134.082031 109.976563 134.6875 C 108.964844 135.292969 107.941406 135.875 106.902344 136.429688 C 105.867188 136.984375 104.8125 137.511719 103.75 138.015625 C 102.6875 138.519531 101.609375 138.996094 100.523438 139.445313 C 99.4375 139.898438 98.335938 140.320313 97.230469 140.71875 C 96.121094 141.113281 95.003906 141.484375 93.878906 141.824219 C 92.75 142.164063 91.617188 142.480469 90.476563 142.765625 C 89.332031 143.050781 88.183594 143.308594 87.03125 143.539063 C 85.875 143.769531 84.71875 143.96875 83.554688 144.144531 C 82.390625 144.316406 81.222656 144.460938 80.050781 144.574219 C 78.878906 144.691406 77.703125 144.777344 76.527344 144.835938 C 75.351563 144.890625 74.175781 144.921875 73 144.921875 C 71.824219 144.921875 70.648438 144.890625 69.472656 144.835938 C 68.296875 144.777344 67.121094 144.691406 65.949219 144.574219 C 64.777344 144.460938 63.609375 144.316406 62.445313 144.144531 C 61.28125 143.96875 60.125 143.769531 58.96875 143.539063 C 57.8125 143.308594 56.667969 143.050781 55.523438 142.765625 C 54.382813 142.480469 53.25 142.164063 52.121094 141.824219 C 50.996094 141.484375 49.878906 141.113281 48.769531 140.71875 C 47.664063 140.320313 46.5625 139.898438 45.476563 139.445313 C 44.390625 138.996094 43.3125 138.519531 42.25 138.015625 C 41.1875 137.511719 40.132813 136.984375 39.097656 136.429688 C 38.058594 135.875 37.035156 135.292969 36.023438 134.6875 C 35.015625 134.082031 34.019531 133.453125 33.042969 132.800781 C 32.0625 132.144531 31.101563 131.46875 30.15625 130.769531 C 29.210938 130.066406 28.285156 129.34375 27.375 128.597656 C 26.464844 127.847656 25.574219 127.082031 24.699219 126.289063 C 23.828125 125.5 22.976563 124.6875 22.144531 123.855469 C 21.3125 123.023438 20.5 122.171875 19.710938 121.300781 C 18.917969 120.425781 18.152344 119.535156 17.402344 118.625 C 16.65625 117.714844 15.933594 116.789063 15.230469 115.84375 C 14.53125 114.898438 13.855469 113.9375 13.199219 112.957031 C 12.546875 111.980469 11.917969 110.984375 11.3125 109.976563 C 10.707031 108.964844 10.125 107.941406 9.570313 106.902344 C 9.015625 105.867188 8.488281 104.8125 7.984375 103.75 C 7.480469 102.6875 7.003906 101.609375 6.554688 100.523438 C 6.101563 99.4375 5.679688 98.335938 5.28125 97.230469 C 4.886719 96.121094 4.515625 95.003906 4.175781 93.878906 C 3.835938 92.75 3.519531 91.617188 3.234375 90.476563 C 2.949219 89.332031 2.691406 88.183594 2.460938 87.03125 C 2.230469 85.875 2.03125 84.71875 1.855469 83.554688 C 1.683594 82.390625 1.539063 81.222656 1.425781 80.050781 C 1.308594 78.878906 1.222656 77.703125 1.164063 76.527344 C 1.109375 75.351563 1.078125 74.175781 1.078125 73 C 1.078125 71.824219 1.109375 70.648438 1.164063 69.472656 C 1.222656 68.296875 1.308594 67.121094 1.425781 65.949219 C 1.539063 64.777344 1.683594 63.609375 1.855469 62.445313 C 2.03125 61.28125 2.230469 60.125 2.460938 58.96875 C 2.691406 57.8125 2.949219 56.667969 3.234375 55.523438 C 3.519531 54.382813 3.835938 53.25 4.175781 52.121094 C 4.515625 50.996094 4.886719 49.878906 5.28125 48.769531 C 5.679688 47.664063 6.101563 46.5625 6.554688 45.476563 C 7.003906 44.390625 7.480469 43.3125 7.984375 42.25 C 8.488281 41.1875 9.015625 40.132813 9.570313 39.097656 C 10.125 38.058594 10.707031 37.035156 11.3125 36.023438 C 11.917969 35.015625 12.546875 34.019531 13.199219 33.042969 C 13.855469 32.0625 14.53125 31.101563 15.230469 30.15625 C 15.933594 29.210938 16.65625 28.285156 17.402344 27.375 C 18.152344 26.464844 18.917969 25.574219 19.710938 24.699219 C 20.5 23.828125 21.3125 22.976563 22.144531 22.144531 C 22.976563 21.3125 23.828125 20.5 24.699219 19.710938 C 25.574219 18.917969 26.464844 18.152344 27.375 17.402344 C 28.285156 16.65625 29.210938 15.933594 30.15625 15.230469 C 31.101563 14.53125 32.0625 13.855469 33.042969 13.199219 C 34.019531 12.546875 35.015625 11.917969 36.023438 11.3125 C 37.035156 10.707031 38.058594 10.125 39.097656 9.570313 C 40.132813 9.015625 41.1875 8.488281 42.25 7.984375 C 43.3125 7.480469 44.390625 7.003906 45.476563 6.554688 C 46.5625 6.101563 47.664063 5.679688 48.769531 5.28125 C 49.878906 4.886719 50.996094 4.515625 52.121094 4.175781 C 53.25 3.835938 54.382813 3.519531 55.523438 3.234375 C 56.667969 2.949219 57.8125 2.691406 58.96875 2.460938 C 60.125 2.230469 61.28125 2.03125 62.445313 1.855469 C 63.609375 1.683594 64.777344 1.539063 65.949219 1.425781 C 67.121094 1.308594 68.296875 1.222656 69.472656 1.164063 C 70.648438 1.109375 71.824219 1.078125 73 1.078125 C 74.175781 1.078125 75.351563 1.109375 76.527344 1.164063 C 77.703125 1.222656 78.878906 1.308594 80.050781 1.425781 C 81.222656 1.539063 82.390625 1.683594 83.554688 1.855469 C 84.71875 2.03125 85.875 2.230469 87.03125 2.460938 C 88.183594 2.691406 89.332031 2.949219 90.476563 3.234375 C 91.617188 3.519531 92.75 3.835938 93.878906 4.175781 C 95.003906 4.515625 96.121094 4.886719 97.230469 5.28125 C 98.335938 5.679688 99.4375 6.101563 100.523438 6.554688 C 101.609375 7.003906 102.6875 7.480469 103.75 7.984375 C 104.8125 8.488281 105.867188 9.015625 106.902344 9.570313 C 107.941406 10.125 108.964844 10.707031 109.976563 11.3125 C 110.984375 11.917969 111.980469 12.546875 112.957031 13.199219 C 113.9375 13.855469 114.898438 14.53125 115.84375 15.230469 C 116.789063 15.933594 117.714844 16.65625 118.625 17.402344 C 119.535156 18.152344 120.425781 18.917969 121.300781 19.710938 C 122.171875 20.5 123.023438 21.3125 123.855469 22.144531 C 124.6875 22.976563 125.5 23.828125 126.289063 24.699219 C 127.082031 25.574219 127.847656 26.464844 128.597656 27.375 C 129.34375 28.285156 130.066406 29.210938 130.769531 30.15625 C 131.46875 31.101563 132.144531 32.0625 132.800781 33.042969 C 133.453125 34.019531 134.082031 35.015625 134.6875 36.023438 C 135.292969 37.035156 135.875 38.058594 136.429688 39.097656 C 136.984375 40.132813 137.511719 41.1875 138.015625 42.25 C 138.519531 43.3125 138.996094 44.390625 139.445313 45.476563 C 139.898438 46.5625 140.320313 47.664063 140.71875 48.769531 C 141.113281 49.878906 141.484375 50.996094 141.824219 52.121094 C 142.164063 53.25 142.480469 54.382813 142.765625 55.523438 C 143.050781 56.667969 143.308594 57.8125 143.539063 58.96875 C 143.769531 60.125 143.96875 61.28125 144.144531 62.445313 C 144.316406 63.609375 144.460938 64.777344 144.574219 65.949219 C 144.691406 67.121094 144.777344 68.296875 144.835938 69.472656 C 144.890625 70.648438 144.921875 71.824219 144.921875 73 Z M 144.921875 73 "/>
<g clip-path="url(#clip1)" clip-rule="nonzero">
<path style="fill:none;stroke-width:1;stroke-linecap:butt;stroke-linejoin:miter;stroke:rgb(0%,0%,0%);stroke-opacity:1;stroke-miterlimit:4;" d="M 201.00098 101.000009 C 201.00098 102.634828 200.95753 104.269647 200.881492 105.904466 C 200.800022 107.539286 200.680534 109.174105 200.517595 110.803493 C 200.360088 112.432881 200.15913 114.056838 199.920153 115.675363 C 199.675745 117.293888 199.398749 118.901551 199.078302 120.509214 C 198.757856 122.111445 198.399391 123.708246 198.002906 125.299615 C 197.606422 126.885552 197.166487 128.460627 196.693965 130.030271 C 196.221442 131.594484 195.705469 133.147833 195.156909 134.690321 C 194.602917 136.227377 194.016337 137.759001 193.386307 139.268901 C 192.761708 140.7788 192.099091 142.277837 191.398454 143.755149 C 190.697817 145.232461 189.964592 146.69891 189.193349 148.138203 C 188.422105 149.582927 187.612842 151.005926 186.770992 152.412631 C 185.929141 153.813904 185.054703 155.198884 184.147677 156.556707 C 183.23522 157.919962 182.295606 159.25606 181.323405 160.570433 C 180.345772 161.884806 179.340983 163.172023 178.303606 164.437514 C 177.260797 165.703005 176.196264 166.94134 175.093711 168.15795 C 173.99659 169.369128 172.866881 170.55315 171.710016 171.710016 C 170.55315 172.866881 169.369128 173.99659 168.15795 175.093711 C 166.94134 176.196264 165.703005 177.260797 164.437514 178.303606 C 163.172023 179.340983 161.884806 180.345772 160.570433 181.323405 C 159.25606 182.295606 157.919962 183.23522 156.556707 184.147677 C 155.198884 185.054703 153.813904 185.929141 152.412631 186.770992 C 151.005926 187.612842 149.582927 188.422105 148.138203 189.193349 C 146.69891 189.964592 145.232461 190.697817 143.755149 191.398454 C 142.277837 192.099091 140.7788 192.761708 139.268901 193.386307 C 137.759001 194.016337 136.227377 194.602917 134.690321 195.156909 C 133.147833 195.705469 131.594484 196.221442 130.030271 196.693965 C 128.460627 197.166487 126.885552 197.606422 125.299615 198.002906 C 123.708246 198.399391 122.111445 198.757856 120.509214 199.078302 C 118.901551 199.398749 117.293888 199.675745 115.675363 199.920153 C 114.056838 200.15913 112.432881 200.360088 110.803493 200.517595 C 109.174105 200.680534 107.539286 200.800022 105.904466 200.881492 C 104.269647 200.95753 102.634828 201.00098 101.000009 201.00098 C 99.365189 201.00098 97.73037 200.95753 96.095551 200.881492 C 94.460731 200.800022 92.825912 200.680534 91.196524 200.517595 C 89.567136 200.360088 87.94318 200.15913 86.324654 199.920153 C 84.706129 199.675745 83.098466 199.398749 81.490803 199.078302 C 79.88314 198.757856 78.291771 198.399391 76.700402 198.002906 C 75.114465 197.606422 73.53939 197.166487 71.969746 196.693965 C 70.405534 196.221442 68.852184 195.705469 67.309696 195.156909 C 65.77264 194.602917 64.241016 194.016337 62.731116 193.386307 C 61.221217 192.761708 59.72218 192.099091 58.244868 191.398454 C 56.767556 190.697817 55.301107 189.964592 53.861814 189.193349 C 52.41709 188.422105 50.994091 187.612842 49.587387 186.770992 C 48.186113 185.929141 46.801133 185.054703 45.44331 184.147677 C 44.080055 183.23522 42.743957 182.295606 41.429584 181.323405 C 40.115211 180.345772 38.827995 179.340983 37.562503 178.303606 C 36.297012 177.260797 35.058677 176.196264 33.842067 175.093711 C 32.630889 173.99659 31.446867 172.866881 30.290002 171.710016 C 29.133136 170.55315 28.003427 169.369128 26.906306 168.15795 C 25.803753 166.94134 24.73922 165.703005 23.696412 164.437514 C 22.659034 163.172023 21.654245 161.884806 20.676612 160.570433 C 19.704411 159.25606 18.764797 157.919962 17.85234 156.556707 C 16.945314 155.198884 16.070876 153.813904 15.229025 152.412631 C 14.387175 151.005926 13.577912 149.582927 12.806669 148.138203 C 12.035425 146.69891 11.3022 145.232461 10.601563 143.755149 C 9.900927 142.277837 9.238309 140.7788 8.61371 139.268901 C 7.98368 137.759001 7.3971 136.227377 6.843108 134.690321 C 6.294548 133.147833 5.778575 131.594484 5.306053 130.030271 C 4.83353 128.460627 4.393595 126.885552 3.997111 125.299615 C 3.600626 123.708246 3.242161 122.111445 2.921715 120.509214 C 2.601268 118.901551 2.324273 117.293888 2.079864 115.675363 C 1.840887 114.056838 1.63993 112.432881 1.482422 110.803493 C 1.319483 109.174105 1.199995 107.539286 1.118525 105.904466 C 1.042487 104.269647 0.999037 102.634828 0.999037 101.000009 C 0.999037 99.365189 1.042487 97.73037 1.118525 96.095551 C 1.199995 94.460731 1.319483 92.825912 1.482422 91.196524 C 1.63993 89.567136 1.840887 87.94318 2.079864 86.324654 C 2.324273 84.706129 2.601268 83.098466 2.921715 81.490803 C 3.242161 79.88314 3.600626 78.291771 3.997111 76.700402 C 4.393595 75.114465 4.83353 73.53939 5.306053 71.969746 C 5.778575 70.405534 6.294548 68.852184 6.843108 67.309696 C 7.3971 65.77264 7.98368 64.241016 8.61371 62.731116 C 9.238309 61.221217 9.900927 59.72218 10.601563 58.244868 C 11.3022 56.767556 12.035425 55.301107 12.806669 53.861814 C 13.577912 52.41709 14.387175 50.994091 15.229025 49.587387 C 16.070876 48.186113 16.945314 46.801133 17.85234 45.44331 C 18.764797 44.080055 19.704411 42.743957 20.676612 41.429584 C 21.654245 40.115211 22.659034 38.827995 23.696412 37.562503 C 24.73922 36.297012 25.803753 35.058677 26.906306 33.842067 C 28.003427 32.630889 29.133136 31.446867 30.290002 30.290002 C 31.446867 29.133136 32.630889 28.003427 33.842067 26.906306 C 35.058677 25.803753 36.297012 24.73922 37.562503 23.696412 C 38.827995 22.659034 40.115211 21.654245 41.429584 20.676612 C 42.743957 19.704411 44.080055 18.764797 45.44331 17.85234 C 46.801133 16.945314 48.186113 16.070876 49.587387 15.229025 C 50.994091 14.387175 52.41709 13.577912 53.861814 12.806669 C 55.301107 12.035425 56.767556 11.3022 58.244868 10.601563 C 59.72218 9.900927 61.221217 9.238309 62.731116 8.61371 C 64.241016 7.98368 65.77264 7.3971 67.309696 6.843108 C 68.852184 6.294548 70.405534 5.778575 71.969746 5.306053 C 73.53939 4.83353 75.114465 4.393595 76.700402 3.997111 C 78.291771 3.600626 79.88314 3.242161 81.490803 2.921715 C 83.098466 2.601268 84.706129 2.324273 86.324654 2.079864 C 87.94318 1.840887 89.567136 1.63993 91.196524 1.482422 C 92.825912 1.319483 94.460731 1.199995 96.095551 1.118525 C 97.73037 1.042487 99.365189 0.999037 101.000009 0.999037 C 102.634828 0.999037 104.269647 1.042487 105.904466 1.118525 C 107.539286 1.199995 109.174105 1.319483 110.803493 1.482422 C 112.432881 1.63993 114.056838 1.840887 115.675363 2.079864 C 117.293888 2.324273 118.901551 2.601268 120.509214 2.921715 C 122.111445 3.242161 123.708246 3.600626 125.299615 3.997111 C 126.885552 4.393595 128.460627 4.83353 130.030271 5.306053 C 131.594484 5.778575 133.147833 6.294548 134.690321 6.843108 C 136.227377 7.3971 137.759001 7.98368 139.268901 8.61371 C 140.7788 9.238309 142.277837 9.900927 143.755149 10.601563 C 145.232461 11.3022 146.69891 12.035425 148.138203 12.806669 C 149.582927 13.577912 151.005926 14.387175 152.412631 15.229025 C 153.813904 16.070876 155.198884 16.945314 156.556707 17.85234 C 157.919962 18.764797 159.25606 19.704411 160.570433 20.676612 C 161.884806 21.654245 163.172023 22.659034 164.437514 23.696412 C 165.703005 24.73922 166.94134 25.803753 168.15795 26.906306 C 169.369128 28.003427 170.55315 29.133136 171.710016 30.290002 C 172.866881 31.446867 173.99659 32.630889 175.093711 33.842067 C 176.196264 35.058677 177.260797 36.297012 178.303606 37.562503 C 179.340983 38.827995 180.345772 40.115211 181.323405 41.429584 C 182.295606 42.743957 183.23522 44.080055 184.147677 45.44331 C 185.054703 46.801133 185.929141 48.186113 186.770992 49.587387 C 187.612842 50.994091 188.422105 52.41709 189.193349 53.861814 C 189.964592 55.301107 190.697817 56.767556 191.398454 58.244868 C 192.099091 59.72218 192.761708 61.221217 193.386307 62.731116 C 194.016337 64.241016 194.602917 65.77264 195.156909 67.309696 C 195.705469 68.852184 196.221442 70.405534 196.693965 71.969746 C 197.166487 73.53939 197.606422 75.114465 198.002906 76.700402 C 198.399391 78.291771 198.757856 79.88314 199.078302 81.490803 C 199.398749 83.098466 199.675745 84.706129 199.920153 86.324654 C 200.15913 87.94318 200.360088 89.567136 200.517595 91.196524 C 200.680534 92.825912 200.800022 94.460731 200.881492 96.095551 C 200.95753 97.73037 201.00098 99.365189 201.00098 101.000009 Z M 201.00098 101.000009 " transform="matrix(0.719212,0,0,0.719212,0.359606,0.359606)"/>
</g>
<path style="fill-rule:nonzero;fill:rgb(87.059021%,87.059021%,87.059021%);fill-opacity:1;stroke-width:1;stroke-linecap:butt;stroke-linejoin:miter;stroke:rgb(0%,0%,0%);stroke-opacity:1;stroke-miterlimit:4;" d="M 175.001379 101.000009 C 175.001379 103.454953 174.881891 105.904466 174.637483 108.35398 C 174.398506 110.798062 174.04004 113.220418 173.556655 115.631913 C 173.078701 118.043407 172.481259 120.422313 171.76976 122.768632 C 171.05826 125.120382 170.232704 127.434113 169.29309 129.698962 C 168.353476 131.969243 167.299805 134.190642 166.14294 136.352296 C 164.986075 138.519382 163.726014 140.626724 162.36276 142.66889 C 160.994074 144.711057 159.533056 146.682616 157.974275 148.578138 C 156.415494 150.47909 154.769812 152.298573 153.031798 154.031156 C 151.293784 155.76917 149.479732 157.414852 147.57878 158.973633 C 145.683258 160.532414 143.711699 161.993432 141.669533 163.362118 C 139.627366 164.725372 137.520024 165.985432 135.352938 167.142298 C 133.185852 168.304595 130.969885 169.352834 128.699604 170.292448 C 126.429324 171.232062 124.121024 172.057618 121.769274 172.769118 C 119.422955 173.486048 117.038618 174.078059 114.632555 174.561445 C 112.22106 175.039398 109.793272 175.397864 107.34919 175.636841 C 104.905108 175.881249 102.455595 176.000737 100.000651 176.000737 C 97.545706 176.000737 95.090761 175.881249 92.64668 175.636841 C 90.202598 175.397864 87.774809 175.039398 85.368747 174.561445 C 82.957252 174.078059 80.578346 173.486048 78.226596 172.769118 C 75.880277 172.057618 73.566546 171.232062 71.296266 170.292448 C 69.031416 169.352834 66.810017 168.304595 64.642931 167.142298 C 62.481277 165.985432 60.373935 164.725372 58.331769 163.362118 C 56.289602 161.993432 54.318043 160.532414 52.422522 158.973633 C 50.521569 157.414852 48.702086 155.76917 46.969503 154.031156 C 45.231489 152.298573 43.580376 150.47909 42.021595 148.578138 C 40.468245 146.682616 39.001796 144.711057 37.638541 142.66889 C 36.275287 140.626724 35.015227 138.519382 33.858361 136.352296 C 32.696064 134.190642 31.647825 131.969243 30.708211 129.698962 C 29.768597 127.434113 28.943041 125.120382 28.231541 122.768632 C 27.514611 120.422313 26.9226 118.043407 26.439215 115.631913 C 25.961261 113.220418 25.602795 110.798062 25.363819 108.35398 C 25.11941 105.904466 24.999922 103.454953 24.999922 101.000009 C 24.999922 98.545064 25.11941 96.095551 25.363819 93.646037 C 25.602795 91.201956 25.961261 88.779599 26.439215 86.368105 C 26.9226 83.95661 27.514611 81.577704 28.231541 79.225954 C 28.943041 76.879635 29.768597 74.565904 30.708211 72.301055 C 31.647825 70.030774 32.696064 67.809375 33.858361 65.647721 C 35.015227 63.480635 36.275287 61.373293 37.638541 59.331127 C 39.001796 57.28896 40.468245 55.317401 42.021595 53.42188 C 43.580376 51.520927 45.231489 49.701444 46.969503 47.968861 C 48.702086 46.230847 50.521569 44.585165 52.422522 43.026384 C 54.318043 41.467603 56.289602 40.006585 58.331769 38.637899 C 60.373935 37.274645 62.481277 36.014585 64.642931 34.857719 C 66.810017 33.695422 69.031416 32.647183 71.296266 31.707569 C 73.566546 30.767955 75.880277 29.942399 78.226596 29.230899 C 80.578346 28.513969 82.957252 27.921958 85.368747 27.438573 C 87.774809 26.960619 90.202598 26.602153 92.64668 26.363176 C 95.090761 26.118768 97.545706 25.99928 100.000651 25.99928 C 102.455595 25.99928 104.905108 26.118768 107.34919 26.363176 C 109.793272 26.602153 112.22106 26.960619 114.632555 27.438573 C 117.038618 27.921958 119.422955 28.513969 121.769274 29.230899 C 124.121024 29.942399 126.429324 30.767955 128.699604 31.707569 C 130.969885 32.647183 133.185852 33.695422 135.352938 34.857719 C 137.520024 36.014585 139.627366 37.274645 141.669533 38.637899 C 143.711699 40.006585 145.683258 41.467603 147.57878 43.026384 C 149.479732 44.585165 151.293784 46.230847 153.031798 47.968861 C 154.769812 49.701444 156.415494 51.520927 157.974275 53.42188 C 159.533056 55.317401 160.994074 57.28896 162.36276 59.331127 C 163.726014 61.373293 164.986075 63.480635 166.14294 65.647721 C 167.299805 67.809375 168.353476 70.030774 169.29309 72.301055 C 170.232704 74.565904 171.05826 76.879635 171.76976 79.225954 C 172.481259 81.577704 173.078701 83.95661 173.556655 86.368105 C 174.04004 88.779599 174.398506 91.201956 174.637483 93.646037 C 174.881891 96.095551 175.001379 98.545064 175.001379 101.000009 Z M 175.001379 101.000009 " transform="matrix(0.719212,0,0,0.719212,0.359606,0.359606)"/>
<path style="fill-rule:nonzero;fill:rgb(70.199585%,70.199585%,70.199585%);fill-opacity:1;stroke-width:1;stroke-linecap:butt;stroke-linejoin:miter;stroke:rgb(0%,0%,0%);stroke-opacity:1;stroke-miterlimit:4;" d="M 151.000494 101.000009 C 151.000494 102.640259 150.919025 104.269647 150.761517 105.899035 C 150.598579 107.528423 150.359602 109.146948 150.039155 110.754611 C 149.718709 112.362274 149.322225 113.948212 148.849702 115.512424 C 148.371748 117.082068 147.823188 118.619124 147.193158 120.134455 C 146.568559 121.649786 145.867922 123.127097 145.096679 124.571821 C 144.325435 126.016545 143.483584 127.417819 142.571127 128.781074 C 141.664101 130.138897 140.6919 131.45327 139.649091 132.718761 C 138.611714 133.984253 137.514593 135.195431 136.357728 136.357728 C 135.195431 137.514593 133.984253 138.611714 132.718761 139.649091 C 131.45327 140.6919 130.138897 141.664101 128.781074 142.571127 C 127.417819 143.483584 126.016545 144.325435 124.571821 145.096679 C 123.127097 145.867922 121.649786 146.568559 120.134455 147.193158 C 118.619124 147.823188 117.082068 148.371748 115.512424 148.849702 C 113.948212 149.322225 112.362274 149.718709 110.754611 150.039155 C 109.146948 150.359602 107.528423 150.598579 105.899035 150.761517 C 104.269647 150.919025 102.640259 151.000494 101.000009 151.000494 C 99.359758 151.000494 97.73037 150.919025 96.100982 150.761517 C 94.471594 150.598579 92.853069 150.359602 91.245406 150.039155 C 89.637743 149.718709 88.051805 149.322225 86.487593 148.849702 C 84.917949 148.371748 83.380893 147.823188 81.865562 147.193158 C 80.350232 146.568559 78.87292 145.867922 77.428196 145.096679 C 75.983472 144.325435 74.582198 143.483584 73.218944 142.571127 C 71.86112 141.664101 70.546747 140.6919 69.281256 139.649091 C 68.015765 138.611714 66.804586 137.514593 65.642289 136.357728 C 64.485424 135.195431 63.388303 133.984253 62.350926 132.718761 C 61.308117 131.45327 60.335916 130.138897 59.42889 128.781074 C 58.516433 127.417819 57.674582 126.016545 56.903339 124.571821 C 56.132095 123.127097 55.431458 121.649786 54.806859 120.134455 C 54.176829 118.619124 53.628269 117.082068 53.150315 115.512424 C 52.677792 113.948212 52.281308 112.362274 51.960862 110.754611 C 51.640415 109.146948 51.401438 107.528423 51.2385 105.899035 C 51.080992 104.269647 50.999523 102.640259 50.999523 101.000009 C 50.999523 99.359758 51.080992 97.73037 51.2385 96.100982 C 51.401438 94.471594 51.640415 92.853069 51.960862 91.245406 C 52.281308 89.637743 52.677792 88.051805 53.150315 86.487593 C 53.628269 84.917949 54.176829 83.380893 54.806859 81.865562 C 55.431458 80.350232 56.132095 78.87292 56.903339 77.428196 C 57.674582 75.983472 58.516433 74.582198 59.42889 73.218944 C 60.335916 71.86112 61.308117 70.546747 62.350926 69.281256 C 63.388303 68.015765 64.485424 66.804586 65.642289 65.642289 C 66.804586 64.485424 68.015765 63.388303 69.281256 62.350926 C 70.546747 61.308117 71.86112 60.335916 73.218944 59.42889 C 74.582198 58.516433 75.983472 57.674582 77.428196 56.903339 C 78.87292 56.132095 80.350232 55.431458 81.865562 54.806859 C 83.380893 54.176829 84.917949 53.628269 86.487593 53.150315 C 88.051805 52.677792 89.637743 52.281308 91.245406 51.960862 C 92.853069 51.640415 94.471594 51.401438 96.100982 51.2385 C 97.73037 51.080992 99.359758 50.999523 101.000009 50.999523 C 102.640259 50.999523 104.269647 51.080992 105.899035 51.2385 C 107.528423 51.401438 109.146948 51.640415 110.754611 51.960862 C 112.362274 52.281308 113.948212 52.677792 115.512424 53.150315 C 117.082068 53.628269 118.619124 54.176829 120.134455 54.806859 C 121.649786 55.431458 123.127097 56.132095 124.571821 56.903339 C 126.016545 57.674582 127.417819 58.516433 128.781074 59.42889 C 130.138897 60.335916 131.45327 61.308117 132.718761 62.350926 C 133.984253 63.388303 135.195431 64.485424 136.357728 65.642289 C 137.514593 66.804586 138.611714 68.015765 139.649091 69.281256 C 140.6919 70.546747 141.664101 71.86112 142.571127 73.218944 C 143.483584 74.582198 144.325435 75.983472 145.096679 77.428196 C 145.867922 78.87292 146.568559 80.350232 147.193158 81.865562 C 147.823188 83.380893 148.371748 84.917949 148.849702 86.487593 C 149.322225 88.051805 149.718709 89.637743 150.039155 91.245406 C 150.359602 92.853069 150.598579 94.471594 150.761517 96.100982 C 150.919025 97.73037 151.000494 99.359758 151.000494 101.000009 Z M 151.000494 101.000009 " transform="matrix(0.719212,0,0,0.719212,0.359606,0.359606)"/>
<path style="fill-rule:nonzero;fill:rgb(12.548828%,44.709778%,72.158813%);fill-opacity:1;stroke-width:1;stroke-linecap:butt;stroke-linejoin:miter;stroke:rgb(0%,0%,0%);stroke-opacity:1;stroke-miterlimit:10;" d="M 100.000651 137.601494 C 97.89874 137.601494 96.030375 135.858049 96.030375 133.191284 C 96.030375 131.121961 97.621744 128.998325 99.930044 128.998325 C 102.178599 128.998325 103.840575 131.051354 103.840575 133.289047 C 103.840575 135.879774 101.890741 137.601494 100.000651 137.601494 Z M 92.000356 146.280701 C 92.179588 144.368885 92.418565 141.767296 92.880225 140.447492 C 93.097477 139.850049 93.401629 139.420977 93.901308 139.062512 C 94.232617 138.828966 95.367757 138.198936 95.59044 138.09031 C 95.948906 137.900215 96.339959 137.802452 96.660405 138.09031 C 98.61024 139.801168 101.29873 139.752286 103.281152 138.101173 C 103.498403 137.867627 103.867731 137.927371 104.11214 138.019703 C 104.49233 138.17178 105.698077 138.872417 105.931623 139.019061 C 106.599672 139.448134 106.958137 140.040145 107.218839 141.131835 C 107.571873 142.598284 107.7674 144.477511 108.000946 146.280701 Z M 92.000356 146.280701 " transform="matrix(0.719212,0,0,0.719212,0.359606,0.359606)"/>
<path style="fill-rule:nonzero;fill:rgb(54.119873%,54.119873%,54.119873%);fill-opacity:1;stroke-width:1;stroke-linecap:butt;stroke-linejoin:miter;stroke:rgb(0%,0%,0%);stroke-opacity:1;stroke-miterlimit:4;" d="M 125.000894 101.000009 C 125.000894 101.820134 124.957443 102.634828 124.881405 103.449522 C 124.799936 104.264216 124.680447 105.073479 124.517508 105.87731 C 124.360001 106.681141 124.159043 107.47411 123.925497 108.256216 C 123.686521 109.038323 123.409525 109.809566 123.09451 110.564516 C 122.784926 111.324897 122.431892 112.063553 122.04627 112.785915 C 121.660648 113.508277 121.242439 114.208914 120.78621 114.887825 C 120.329981 115.572168 119.846596 116.229355 119.325192 116.859385 C 118.803788 117.494846 118.255227 118.09772 117.67951 118.678868 C 117.098362 119.254585 116.490057 119.803146 115.860027 120.32455 C 115.224566 120.845954 114.567379 121.329339 113.888467 121.785568 C 113.209556 122.241797 112.508919 122.660006 111.786557 123.045628 C 111.064195 123.436681 110.325539 123.784284 109.565158 124.099299 C 108.810208 124.408883 108.038965 124.685878 107.256858 124.924855 C 106.474752 125.163832 105.681783 125.359359 104.877952 125.522298 C 104.074121 125.679805 103.264858 125.799294 102.450164 125.880763 C 101.63547 125.962232 100.820776 126.000251 100.000651 126.000251 C 99.180525 126.000251 98.365831 125.962232 97.551137 125.880763 C 96.736443 125.799294 95.927181 125.679805 95.123349 125.522298 C 94.319518 125.359359 93.526549 125.163832 92.744443 124.924855 C 91.956905 124.685878 91.191093 124.408883 90.430712 124.099299 C 89.675762 123.784284 88.937106 123.436681 88.214744 123.045628 C 87.492382 122.660006 86.791745 122.241797 86.112834 121.785568 C 85.428491 121.329339 84.771304 120.845954 84.141274 120.32455 C 83.505813 119.803146 82.902939 119.254585 82.321791 118.678868 C 81.746074 118.09772 81.192082 117.494846 80.676109 116.859385 C 80.154705 116.229355 79.665889 115.572168 79.215091 114.887825 C 78.758863 114.208914 78.335222 113.508277 77.9496 112.785915 C 77.563978 112.063553 77.216375 111.324897 76.90136 110.564516 C 76.591777 109.809566 76.314781 109.038323 76.075804 108.256216 C 75.836827 107.47411 75.6413 106.681141 75.478362 105.87731 C 75.320854 105.073479 75.201366 104.264216 75.119896 103.449522 C 75.038427 102.634828 75.000408 101.820134 75.000408 101.000009 C 75.000408 100.179883 75.038427 99.365189 75.119896 98.550495 C 75.201366 97.735801 75.320854 96.926539 75.478362 96.122707 C 75.6413 95.318876 75.836827 94.525907 76.075804 93.743801 C 76.314781 92.961695 76.591777 92.190451 76.90136 91.435501 C 77.216375 90.67512 77.563978 89.936464 77.9496 89.214102 C 78.335222 88.49174 78.758863 87.791103 79.215091 87.112192 C 79.665889 86.427849 80.154705 85.770662 80.676109 85.140632 C 81.192082 84.505171 81.746074 83.902297 82.321791 83.321149 C 82.902939 82.745432 83.505813 82.196871 84.141274 81.675467 C 84.771304 81.154063 85.428491 80.670678 86.112834 80.214449 C 86.791745 79.758221 87.492382 79.340011 88.214744 78.954389 C 88.937106 78.563336 89.675762 78.215733 90.430712 77.900718 C 91.191093 77.591135 91.956905 77.314139 92.744443 77.075162 C 93.526549 76.836185 94.319518 76.640658 95.123349 76.477719 C 95.927181 76.320212 96.736443 76.200724 97.551137 76.119254 C 98.365831 76.037785 99.180525 75.999766 100.000651 75.999766 C 100.820776 75.999766 101.63547 76.037785 102.450164 76.119254 C 103.264858 76.200724 104.074121 76.320212 104.877952 76.477719 C 105.681783 76.640658 106.474752 76.836185 107.256858 77.075162 C 108.038965 77.314139 108.810208 77.591135 109.565158 77.900718 C 110.325539 78.215733 111.064195 78.563336 111.786557 78.954389 C 112.508919 79.340011 113.209556 79.758221 113.888467 80.214449 C 114.567379 80.670678 115.224566 81.154063 115.860027 81.675467 C 116.490057 82.196871 117.098362 82.745432 117.67951 83.321149 C 118.255227 83.902297 118.803788 84.505171 119.325192 85.140632 C 119.846596 85.770662 120.329981 86.427849 120.78621 87.112192 C 121.242439 87.791103 121.660648 88.49174 122.04627 89.214102 C 122.431892 89.936464 122.784926 90.67512 123.09451 91.435501 C 123.409525 92.190451 123.686521 92.961695 123.925497 93.743801 C 124.159043 94.525907 124.360001 95.318876 124.517508 96.122707 C 124.680447 96.926539 124.799936 97.735801 124.881405 98.550495 C 124.957443 99.365189 125.000894 100.179883 125.000894 101.000009 Z M 125.000894 101.000009 " transform="matrix(0.719212,0,0,0.719212,0.359606,0.359606)"/>
<path style="fill-rule:nonzero;fill:rgb(85.488892%,25.099182%,14.898682%);fill-opacity:1;stroke-width:1;stroke-linecap:butt;stroke-linejoin:miter;stroke:rgb(0%,0%,0%);stroke-opacity:1;stroke-miterlimit:10;" d="M 100.000651 100.940264 C 96.741875 100.940264 93.830701 98.219186 93.830701 94.047953 C 93.830701 90.821765 96.291077 87.497814 99.881162 87.497814 C 103.40064 87.497814 105.969642 90.707708 105.969642 94.210892 C 105.969642 98.251774 102.93898 100.940264 100.000651 100.940264 Z M 87.557558 114.502204 C 87.839985 111.520424 88.220176 107.452385 88.942538 105.388494 C 89.257553 104.459742 89.740938 103.791693 90.517613 103.23227 C 91.017292 102.85208 92.809618 101.869015 93.140927 101.711508 C 93.711213 101.407356 94.297793 101.260711 94.808334 101.711508 C 97.828133 104.378273 102.031954 104.302235 105.089772 101.722371 C 105.448238 101.347611 106.018524 101.450806 106.387851 101.59202 C 106.979862 101.820134 108.85909 102.928118 109.212124 103.161663 C 110.260364 103.829712 110.819787 104.74217 111.232565 106.447596 C 111.770263 108.750464 112.079847 111.688794 112.438312 114.502204 Z M 87.557558 114.502204 " transform="matrix(0.719212,0,0,0.719212,0.359606,0.359606)"/>
<path style="fill-rule:nonzero;fill:rgb(49.798584%,72.938538%,25.878906%);fill-opacity:1;stroke-width:1;stroke-linecap:butt;stroke-linejoin:miter;stroke:rgb(0%,0%,0%);stroke-opacity:1;stroke-miterlimit:10;" d="M 38.002438 100.858795 C 35.900527 100.858795 34.032163 99.120781 34.032163 96.448585 C 34.032163 94.379262 35.6181 92.261058 37.931831 92.261058 C 40.180387 92.261058 41.842362 94.308655 41.842362 96.551779 C 41.842362 99.142506 39.892528 100.858795 38.002438 100.858795 Z M 30.002143 109.538002 C 30.181376 107.631618 30.420353 105.030028 30.882012 103.710224 C 31.099264 103.10735 31.397985 102.678278 31.897664 102.319813 C 32.228973 102.091699 33.369545 101.461668 33.592228 101.347611 C 33.950693 101.157516 34.341746 101.059753 34.662193 101.347611 C 36.612027 103.058469 39.300517 103.009587 41.277508 101.358474 C 41.500191 101.13036 41.869519 101.190104 42.108496 101.282436 C 42.488686 101.429081 43.699865 102.129718 43.927979 102.281794 C 44.601459 102.710866 44.959925 103.297446 45.220627 104.389136 C 45.568229 105.861016 45.769187 107.740244 45.997302 109.538002 Z M 30.002143 109.538002 " transform="matrix(0.719212,0,0,0.719212,0.359606,0.359606)"/>
<path style="fill-rule:nonzero;fill:rgb(31.369019%,31.369019%,31.369019%);fill-opacity:1;stroke-width:1;stroke-linecap:butt;stroke-linejoin:miter;stroke:rgb(0%,0%,0%);stroke-opacity:1;stroke-miterlimit:10;" d="M 167.001084 40.598596 C 164.899174 40.598596 163.030809 38.860582 163.030809 36.188386 C 163.030809 34.119063 164.622178 32.000859 166.930478 32.000859 C 169.179033 32.000859 170.841009 34.048456 170.841009 36.291581 C 170.841009 38.882307 168.891174 40.598596 167.001084 40.598596 Z M 159.000789 49.277803 C 159.180022 47.371419 159.418999 44.769829 159.880659 43.450025 C 160.097911 42.852583 160.402063 42.418079 160.901742 42.059614 C 161.22762 41.8315 162.368191 41.20147 162.590874 41.087413 C 162.94934 40.897317 163.340393 40.799554 163.660839 41.087413 C 165.610673 42.79827 168.299163 42.749388 170.281585 41.098275 C 170.498837 40.870161 170.868165 40.929905 171.112573 41.022237 C 171.487333 41.168882 172.698511 41.869519 172.932057 42.021595 C 173.600106 42.450667 173.958571 43.042678 174.219273 44.128937 C 174.572307 45.600817 174.767834 47.480045 175.001379 49.277803 Z M 159.000789 49.277803 " transform="matrix(0.719212,0,0,0.719212,0.359606,0.359606)"/>
</g>
</svg>
